<svg width="950" height="1110" viewBox="0 0 950 1110" fill="none" xmlns="http://www.w3.org/2000/svg">
<path d="M120.14 820.804L107.134 825.995C106.557 824.459 105.989 822.904 105.439 821.359L118.535 816.399C119.056 817.865 119.596 819.339 120.14 820.804Z" fill="#F2EEE0"/>
<path d="M117.658 813.934C117.943 814.756 118.241 815.573 118.535 816.399L105.439 821.359C105.094 820.409 104.761 819.454 104.429 818.499C104.225 817.903 104.025 817.299 103.825 816.695L117.01 811.966C117.229 812.623 117.439 813.277 117.671 813.93L117.658 813.934Z" fill="#F2EEE0"/>
<path d="M117.006 811.975L103.82 816.704C103.297 815.149 102.787 813.589 102.286 812.011L115.547 807.518C116.02 809.016 116.502 810.495 116.997 811.97L117.006 811.975Z" fill="#F2EEE0"/>
<path d="M115.556 807.522L102.295 812.015C101.798 810.451 101.315 808.882 100.845 807.308L114.183 803.05C114.633 804.548 115.084 806.046 115.552 807.531L115.556 807.522Z" fill="#F2EEE0"/>
<path d="M121.825 825.181L108.912 830.593C108.309 829.066 107.723 827.526 107.138 825.986L120.144 820.795C120.688 822.26 121.245 823.721 121.829 825.172L121.825 825.181Z" fill="#F2EEE0"/>
<path d="M114.187 803.04L100.849 807.298C100.379 805.724 99.9315 804.15 99.4882 802.566L112.902 798.544C113.317 800.048 113.755 801.551 114.196 803.045L114.187 803.04Z" fill="#F2EEE0"/>
<path d="M131.292 846.663L118.903 853.187C118.175 851.712 117.456 850.219 116.756 848.735L129.252 842.427C129.916 843.85 130.597 845.259 131.292 846.663Z" fill="#F2EEE0"/>
<path d="M125.394 833.863L112.674 839.732C112.018 838.224 111.379 836.703 110.749 835.186L123.563 829.538C124.16 830.985 124.77 832.426 125.385 833.859L125.394 833.863Z" fill="#F2EEE0"/>
<path d="M129.256 842.418L116.76 848.726C116.059 847.241 115.367 845.739 114.684 844.241L127.296 838.155C127.938 839.577 128.597 841.009 129.265 842.423L129.256 842.418Z" fill="#F2EEE0"/>
<path d="M123.576 829.534L110.762 835.181C110.132 833.664 109.52 832.133 108.917 830.606L121.829 825.194C122.4 826.65 122.984 828.101 123.581 829.547L123.576 829.534Z" fill="#F2EEE0"/>
<path d="M106.043 766.566L92.2368 768.918C91.9895 767.295 91.7602 765.681 91.5353 764.057L105.377 761.954C105.583 763.502 105.806 765.036 106.038 766.575L106.043 766.566Z" fill="#F2EEE0"/>
<path d="M107.601 775.776L93.8896 778.605C93.58 776.997 93.297 775.378 93.023 773.765L106.788 771.171C107.043 772.709 107.324 774.238 107.614 775.771L107.601 775.776Z" fill="#F2EEE0"/>
<path d="M106.775 771.176L93.0097 773.769C92.7357 772.156 92.4751 770.537 92.2278 768.914L106.033 766.561C106.266 768.1 106.511 769.634 106.775 771.176Z" fill="#F2EEE0"/>
<path d="M105.382 761.945L91.5396 764.048C91.3237 762.428 91.1211 760.804 90.9318 759.175L104.806 757.309C104.98 758.853 105.176 760.397 105.382 761.945Z" fill="#F2EEE0"/>
<path d="M109.484 784.93L95.8769 788.24C95.5182 786.642 95.1729 785.038 94.8409 783.43L108.502 780.356C108.815 781.888 109.145 783.407 109.484 784.93Z" fill="#F2EEE0"/>
<path d="M107.936 777.562C108.121 778.503 108.314 779.425 108.507 780.369L94.8456 783.444C94.6229 782.375 94.4048 781.319 94.1954 780.245C94.0861 779.706 93.9903 779.162 93.8943 778.618L107.606 775.789C107.72 776.386 107.826 776.979 107.941 777.576L107.945 777.567L107.936 777.562Z" fill="#F2EEE0"/>
<path d="M110.542 789.484L96.9975 793.035C96.6122 791.446 96.2445 789.843 95.8769 788.24L109.484 784.93C109.824 786.453 110.176 787.971 110.542 789.484Z" fill="#F2EEE0"/>
<path d="M111.675 794.02L98.1938 797.811C97.7862 796.222 97.3785 794.633 96.9975 793.035L110.542 789.484C110.908 790.998 111.283 792.516 111.675 794.02Z" fill="#F2EEE0"/>
<path d="M112.893 798.54L99.4791 802.562C99.0358 800.979 98.6148 799.395 98.1981 797.802L111.68 794.011C112.068 795.524 112.479 797.036 112.898 798.531L112.893 798.54Z" fill="#F2EEE0"/>
<path d="M127.296 838.155L114.684 844.241C114.001 842.743 113.335 841.231 112.679 839.723L125.398 833.854C126.022 835.291 126.646 836.727 127.296 838.155Z" fill="#F2EEE0"/>
<path d="M164.406 898.113L153.819 907.276C152.764 906 151.728 904.71 150.686 903.407L161.429 894.428C162.411 895.67 163.402 896.894 164.397 898.108L164.406 898.113Z" fill="#F2EEE0"/>
<path d="M167.444 901.737L157.022 911.09C155.946 909.836 154.878 908.565 153.819 907.276L164.406 898.113C165.41 899.331 166.427 900.546 167.444 901.737Z" fill="#F2EEE0"/>
<path d="M170.544 905.303L160.282 914.831C159.188 913.591 158.098 912.343 157.008 911.072L167.43 901.72C168.461 902.929 169.491 904.116 170.539 905.289L170.535 905.298L170.544 905.303Z" fill="#F2EEE0"/>
<path d="M161.433 894.419L150.69 903.398C149.667 902.103 148.639 900.796 147.628 899.474L158.531 890.693C159.496 891.949 160.456 893.191 161.429 894.428L161.433 894.419Z" fill="#F2EEE0"/>
<path d="M176.96 912.281L167.036 922.169C165.876 920.954 164.737 919.738 163.626 918.534L173.719 908.826C174.78 909.972 175.859 911.127 176.96 912.281Z" fill="#F2EEE0"/>
<path d="M165.256 553.909L154.48 544.969C155.519 543.713 156.55 542.454 157.599 541.225L168.218 550.356C167.217 551.53 166.234 552.713 165.256 553.909Z" fill="#F2EEE0"/>
<path d="M173.221 908.291C173.381 908.466 173.55 908.646 173.719 908.826L163.626 918.534C163.384 918.275 163.137 918.003 162.895 917.744C162.021 916.786 161.156 915.811 160.287 914.844L170.549 905.316C171.437 906.314 172.325 907.311 173.23 908.295L173.221 908.291Z" fill="#F2EEE0"/>
<path d="M104.801 757.318L90.9275 759.185C90.7382 757.556 90.558 755.931 90.4044 754.297L104.314 752.68C104.466 754.225 104.627 755.774 104.81 757.322L104.801 757.318Z" fill="#F2EEE0"/>
<path d="M158.531 890.694L147.628 899.474C146.622 898.166 145.625 896.839 144.645 895.499L155.704 886.903C156.638 888.177 157.589 889.438 158.536 890.684L158.531 890.694Z" fill="#F2EEE0"/>
<path d="M132.825 849.749C133.012 850.126 133.207 850.484 133.402 850.865L121.13 857.611C120.864 857.097 120.604 856.597 120.339 856.083C119.854 855.123 119.383 854.157 118.903 853.187L131.292 846.662C131.796 847.699 132.304 848.727 132.821 849.758L132.825 849.749Z" fill="#F2EEE0"/>
<path d="M142.558 867.316L130.79 874.911C129.939 873.51 129.101 872.082 128.267 870.645L140.169 863.258C140.961 864.62 141.757 865.973 142.567 867.321L142.558 867.316Z" fill="#F2EEE0"/>
<path d="M140.164 863.267L128.262 870.654C127.433 869.23 126.621 867.793 125.814 866.346L137.845 859.176C138.607 860.556 139.386 861.923 140.173 863.271L140.164 863.267Z" fill="#F2EEE0"/>
<path d="M137.841 859.163L125.809 866.333C125.007 864.9 124.213 863.449 123.436 861.984L135.588 855.026C136.332 856.42 137.084 857.796 137.841 859.163Z" fill="#F2EEE0"/>
<path d="M135.584 855.035L123.432 861.993C122.66 860.541 121.893 859.081 121.13 857.611L133.402 850.865C134.119 852.268 134.845 853.654 135.584 855.035Z" fill="#F2EEE0"/>
<path d="M155.7 886.912L144.641 895.508C143.657 894.177 142.686 892.841 141.724 891.487L152.93 883.094C153.846 884.382 154.767 885.661 155.696 886.922L155.7 886.912Z" fill="#F2EEE0"/>
<path d="M152.926 883.081L141.719 891.474C140.762 890.134 139.813 888.775 138.869 887.407L150.218 879.204C151.107 880.501 152.01 881.793 152.917 883.077L152.926 883.081Z" fill="#F2EEE0"/>
<path d="M149.347 877.938C149.642 878.366 149.941 878.784 150.227 879.208L138.878 887.412C138.505 886.869 138.127 886.335 137.758 885.783C137.205 884.967 136.651 884.128 136.098 883.29L147.594 875.289C148.18 876.176 148.757 877.059 149.351 877.929L149.347 877.938Z" fill="#F2EEE0"/>
<path d="M147.59 875.298L136.094 883.299C135.185 881.926 134.285 880.535 133.402 879.13L145.032 871.337C145.878 872.68 146.727 873.991 147.59 875.298Z" fill="#F2EEE0"/>
<path d="M145.032 871.337L133.402 879.13C132.524 877.739 131.651 876.338 130.79 874.911L142.558 867.316C143.377 868.669 144.2 870.012 145.032 871.337Z" fill="#F2EEE0"/>
<path d="M132.449 604.151L119.929 597.881C120.66 596.435 121.405 594.984 122.163 593.551L134.563 600.029C133.848 601.395 133.142 602.764 132.445 604.138L132.44 604.147L132.449 604.151Z" fill="#F2EEE0"/>
<path d="M136.767 595.973L124.475 589.269C125.251 587.844 126.046 586.428 126.85 585.016L139.039 591.937C138.27 593.277 137.523 594.616 136.776 595.977L136.767 595.973Z" fill="#F2EEE0"/>
<path d="M134.568 600.043L122.168 593.564C122.926 592.131 123.698 590.693 124.475 589.269L136.767 595.973C136.025 597.325 135.292 598.682 134.568 600.043Z" fill="#F2EEE0"/>
<path d="M139.026 591.942L126.836 585.021C127.64 583.609 128.461 582.206 129.279 580.812L141.343 587.95C140.56 589.272 139.782 590.607 139.012 591.947L139.017 591.938L139.026 591.942Z" fill="#F2EEE0"/>
<path d="M141.356 587.946L129.292 580.807C130.123 579.409 130.967 578.027 131.816 576.637L143.741 583.975C142.931 585.284 142.135 586.61 141.352 587.932L141.347 587.941L141.356 587.946Z" fill="#F2EEE0"/>
<path d="M130.399 608.303L117.771 602.259C118.48 600.791 119.202 599.34 119.933 597.894L132.454 604.165C131.757 605.538 131.078 606.921 130.395 608.312L130.399 608.303Z" fill="#F2EEE0"/>
<path d="M143.75 583.979L131.825 576.641C132.683 575.255 133.546 573.883 134.426 572.518L146.208 580.065C145.38 581.365 144.56 582.67 143.75 583.979Z" fill="#F2EEE0"/>
<path d="M146.208 580.065L134.426 572.518C135.307 571.154 136.197 569.795 137.095 568.439L148.756 576.194C147.905 577.472 147.049 578.76 146.221 580.06L146.217 580.069L146.208 580.065Z" fill="#F2EEE0"/>
<path d="M128.403 612.481L115.677 606.667C116.003 605.98 116.298 605.29 116.624 604.603C116.997 603.818 117.389 603.04 117.758 602.264L130.386 608.308C129.716 609.695 129.046 611.081 128.399 612.49L128.403 612.481Z" fill="#F2EEE0"/>
<path d="M121.182 629.521L108.071 624.609C108.653 623.081 109.24 621.566 109.84 620.069L122.862 625.215C122.287 626.636 121.734 628.078 121.177 629.53L121.182 629.521Z" fill="#F2EEE0"/>
<path d="M122.862 625.215L109.84 620.069C110.45 618.554 111.064 617.052 111.696 615.559L124.623 620.926C124.03 622.338 123.437 623.772 122.866 625.206L122.862 625.215Z" fill="#F2EEE0"/>
<path d="M124.623 620.926L111.696 615.558C112.332 614.056 112.982 612.571 113.641 611.091L126.47 616.689C125.846 618.097 125.23 619.509 124.619 620.935L124.623 620.926Z" fill="#F2EEE0"/>
<path d="M126.582 616.431L126.461 616.684L113.632 611.087C113.692 610.96 113.743 610.83 113.799 610.712C114.411 609.353 115.037 608.012 115.668 606.662L128.394 612.477C127.781 613.791 127.168 615.104 126.572 616.427L126.582 616.431Z" fill="#F2EEE0"/>
<path d="M162.354 557.501L151.421 548.752C152.433 547.484 153.454 546.22 154.484 544.96L165.261 553.9C164.287 555.087 163.318 556.287 162.354 557.501Z" fill="#F2EEE0"/>
<path d="M119.578 633.874L106.383 629.187C106.938 627.646 107.497 626.119 108.071 624.609L121.182 629.521C120.633 630.954 120.099 632.405 119.574 633.86L119.569 633.869L119.578 633.874Z" fill="#F2EEE0"/>
<path d="M180.258 915.686C181.349 916.792 182.468 917.91 183.613 919.041L174.049 929.266C172.84 928.082 171.671 926.907 170.521 925.74L180.262 915.677L180.258 915.686Z" fill="#F2EEE0"/>
<path d="M149.584 574.916C149.297 575.333 149.024 575.768 148.747 576.189L137.086 568.435C137.386 567.99 137.681 567.533 137.981 567.088C138.589 566.182 139.215 565.306 139.828 564.412L151.349 572.366C150.758 573.215 150.171 574.054 149.584 574.916Z" fill="#F2EEE0"/>
<path d="M159.502 561.15L148.42 552.596C149.41 551.306 150.413 550.033 151.425 548.765L162.359 557.514C161.399 558.719 160.448 559.928 159.511 561.154L159.502 561.15Z" fill="#F2EEE0"/>
<path d="M156.709 564.838L145.479 556.48C146.446 555.168 147.431 553.886 148.42 552.596L159.502 561.15C158.565 562.376 157.632 563.594 156.709 564.838Z" fill="#F2EEE0"/>
<path d="M183.613 919.041C184.722 920.132 185.849 921.232 187.012 922.35L177.622 932.746C176.395 931.576 175.209 930.415 174.036 929.271L183.6 919.045L183.604 919.036L183.613 919.041Z" fill="#F2EEE0"/>
<path d="M153.997 568.587L142.619 560.424C143.568 559.104 144.508 557.779 145.479 556.48L156.709 564.838C155.79 566.073 154.894 567.33 153.997 568.587Z" fill="#F2EEE0"/>
<path d="M151.336 572.371L139.814 564.417C140.74 563.074 141.671 561.745 142.606 560.429L153.984 568.592C153.088 569.849 152.201 571.11 151.331 572.38L151.336 572.371Z" fill="#F2EEE0"/>
<path d="M176.96 912.281C178.029 913.41 179.13 914.541 180.258 915.686L170.517 925.749C169.338 924.548 168.174 923.363 167.045 922.174L176.969 912.286L176.96 912.281Z" fill="#F2EEE0"/>
<path d="M187.012 922.35C188.129 923.423 189.283 924.514 190.455 925.613L181.251 936.175C180.016 935.024 178.803 933.872 177.622 932.746L187.012 922.35Z" fill="#F2EEE0"/>
<path d="M334.006 458.817L332.224 444.928C333.83 444.695 335.43 444.448 337.032 444.246L338.578 458.166C337.056 458.362 335.531 458.589 334.015 458.821L334.006 458.817Z" fill="#F2EEE0"/>
<path d="M361.569 456.147L361.234 442.149C362.852 442.076 364.47 442.026 366.097 441.98L366.186 455.983C364.648 456.027 363.106 456.081 361.569 456.147Z" fill="#F2EEE0"/>
<path d="M324.911 460.319L322.643 446.498C324.234 446.202 325.826 445.951 327.426 445.682L329.458 459.534C327.942 459.789 326.431 460.034 324.915 460.31L324.911 460.319Z" fill="#F2EEE0"/>
<path d="M366.186 455.983L366.097 441.98C367.72 441.943 369.343 441.906 370.962 441.9L370.809 455.899C369.266 455.908 367.724 455.939 366.186 455.983Z" fill="#F2EEE0"/>
<path d="M375.439 455.896L375.833 441.901C377.453 441.917 379.082 441.938 380.706 441.991L380.061 455.977C378.517 455.941 376.978 455.918 375.435 455.905L375.439 455.896Z" fill="#F2EEE0"/>
<path d="M347.753 457.123L346.69 443.166C348.302 443.013 349.913 442.86 351.535 442.733L352.352 456.717C350.821 456.842 349.28 456.985 347.749 457.132L347.753 457.123Z" fill="#F2EEE0"/>
<path d="M359.91 456.212C358.923 456.263 357.936 456.337 356.953 456.401L356.381 442.412C357.328 442.353 358.271 442.28 359.214 442.23C359.893 442.198 360.568 442.176 361.247 442.144L361.582 456.143C361.028 456.167 360.478 456.183 359.924 456.207L359.919 456.216L359.91 456.212Z" fill="#F2EEE0"/>
<path d="M329.458 459.534L327.426 445.682C329.022 445.422 330.618 445.162 332.224 444.928L334.006 458.817C332.481 459.044 330.969 459.289 329.453 459.543L329.458 459.534Z" fill="#F2EEE0"/>
<path d="M352.343 456.713L351.526 442.729C353.147 442.602 354.764 442.507 356.381 442.412L356.953 456.401C355.416 456.49 353.884 456.593 352.343 456.713Z" fill="#F2EEE0"/>
<path d="M338.578 458.166L337.032 444.246C338.638 444.034 340.249 443.859 341.852 443.679L343.156 457.618C341.625 457.787 340.103 457.961 338.578 458.166Z" fill="#F2EEE0"/>
<path d="M343.156 457.618L341.852 443.679C343.467 443.494 345.074 443.328 346.686 443.175L347.749 457.132C346.218 457.279 344.687 457.448 343.156 457.618Z" fill="#F2EEE0"/>
<path d="M370.81 455.899L370.962 441.9C372.586 441.885 374.214 441.884 375.833 441.901L375.439 455.896C373.896 455.882 372.357 455.882 370.81 455.899Z" fill="#F2EEE0"/>
<path d="M483.702 479.392L489.738 466.759C491.236 467.427 492.717 468.108 494.212 468.807L487.959 481.337C486.55 480.667 485.128 480.025 483.716 479.387L483.711 479.396L483.702 479.392Z" fill="#F2EEE0"/>
<path d="M492.169 483.359L498.638 470.933C500.111 471.654 501.575 472.394 503.039 473.134L496.353 485.435C494.961 484.73 493.565 484.033 492.164 483.346L492.16 483.355L492.169 483.359Z" fill="#F2EEE0"/>
<path d="M500.512 487.611L507.41 475.422C508.861 476.189 510.304 476.974 511.743 477.768L504.636 489.836C503.265 489.085 501.891 488.343 500.512 487.611Z" fill="#F2EEE0"/>
<path d="M496.357 485.449L503.044 473.148C504.503 473.897 505.959 474.655 507.41 475.422L500.512 487.611C499.133 486.878 497.745 486.163 496.353 485.458L496.357 485.449Z" fill="#F2EEE0"/>
<path d="M487.959 481.337L494.212 468.807C495.693 469.511 497.174 470.215 498.647 470.937L492.178 483.363C490.778 482.676 489.373 481.997 487.959 481.337Z" fill="#F2EEE0"/>
<path d="M466.403 472.368L471.54 459.342C473.086 459.91 474.618 460.483 476.133 461.07L470.761 474.007C469.319 473.454 467.863 472.906 466.389 472.372L466.403 472.368Z" fill="#F2EEE0"/>
<path d="M473.493 475.061C472.6 474.703 471.681 474.355 470.774 474.002L476.146 461.065C476.998 461.392 477.85 461.72 478.698 462.056C479.369 462.32 480.042 462.606 480.709 462.879L475.116 475.722C474.58 475.5 474.034 475.274 473.497 475.052L473.493 475.061Z" fill="#F2EEE0"/>
<path d="M475.112 475.731L480.705 462.888C482.216 463.506 483.731 464.138 485.238 464.787L479.429 477.527C477.994 476.912 476.56 476.319 475.121 475.735L475.112 475.731Z" fill="#F2EEE0"/>
<path d="M479.429 477.527L485.238 464.787C486.736 465.433 488.244 466.082 489.738 466.759L483.702 479.391C482.276 478.758 480.846 478.134 479.42 477.523L479.429 477.527Z" fill="#F2EEE0"/>
<path d="M504.64 489.827L511.747 477.759C513.185 478.553 514.619 479.356 516.049 480.169L508.738 492.106C507.381 491.329 506.015 490.569 504.644 489.818L504.64 489.827Z" fill="#F2EEE0"/>
<path d="M520.73 499.443L528.662 487.9C530.035 488.807 531.405 489.723 532.756 490.653L524.625 502.057C523.333 501.166 522.04 500.298 520.73 499.443Z" fill="#F2EEE0"/>
<path d="M516.784 496.914L524.515 485.232C525.915 486.107 527.293 487.006 528.662 487.9L520.73 499.443C519.425 498.579 518.111 497.733 516.788 496.905L516.784 496.914Z" fill="#F2EEE0"/>
<path d="M524.621 502.066L532.752 490.662C534.113 491.597 535.46 492.536 536.803 493.484L528.472 504.749C527.197 503.844 525.909 502.944 524.621 502.066Z" fill="#F2EEE0"/>
<path d="M528.472 504.749L536.803 493.484C538.155 494.436 539.49 495.403 540.815 496.365L532.289 507.481C531.023 506.558 529.747 505.654 528.472 504.749Z" fill="#F2EEE0"/>
<path d="M865.685 389.36L879.422 392.045C879.189 393.141 878.956 394.238 878.71 395.338L865.022 392.411C865.252 391.391 865.482 390.371 865.689 389.351L865.685 389.36Z" fill="#F2EEE0"/>
<path d="M866.303 386.288L880.094 388.744C879.879 389.849 879.655 390.949 879.422 392.045L865.685 389.36C865.906 388.336 866.113 387.316 866.303 386.288Z" fill="#F2EEE0"/>
<path d="M868.644 370.805L882.586 372.081C882.465 373.198 882.344 374.314 882.21 375.435L868.295 373.916C868.422 372.88 868.531 371.836 868.649 370.796L868.644 370.805Z" fill="#F2EEE0"/>
<path d="M867.469 379.757C867.612 378.85 867.728 377.931 867.857 377.029L881.75 378.781C881.601 379.839 881.466 380.893 881.299 381.943C881.291 382.006 881.279 382.056 881.271 382.118L867.414 380.129C867.429 380.003 867.454 379.882 867.478 379.761L867.469 379.757Z" fill="#F2EEE0"/>
<path d="M866.867 383.213L880.689 385.44C880.497 386.544 880.3 387.658 880.089 388.753L866.299 386.297C866.497 385.273 866.678 384.241 866.867 383.213Z" fill="#F2EEE0"/>
<path d="M868.296 373.916L882.21 375.435C882.067 376.551 881.906 377.659 881.741 378.777L867.848 377.025C867.997 375.989 868.155 374.957 868.282 373.921L868.286 373.912L868.296 373.916Z" fill="#F2EEE0"/>
<path d="M867.405 380.125L881.262 382.114C881.088 383.227 880.886 384.327 880.689 385.44L866.867 383.213C867.048 382.18 867.238 381.152 867.405 380.125Z" fill="#F2EEE0"/>
<path d="M869.863 348.854L883.865 348.465C883.87 349.596 883.879 350.719 883.861 351.851L869.85 352.003C869.87 350.96 869.862 349.905 869.872 348.858L869.863 348.854Z" fill="#F2EEE0"/>
<path d="M869.48 336.261L883.423 334.925C883.495 336.055 883.567 337.185 883.62 338.307L869.66 339.402C869.616 338.351 869.537 337.306 869.471 336.256L869.48 336.261Z" fill="#F2EEE0"/>
<path d="M868.669 326.83L882.526 324.789C882.656 325.914 882.786 327.038 882.893 328.163L869.001 329.977C868.899 328.932 868.789 327.883 868.665 326.839L868.669 326.83Z" fill="#F2EEE0"/>
<path d="M869.664 339.415L883.625 338.32C883.675 339.451 883.715 340.578 883.742 341.709L869.759 342.571C869.725 341.525 869.704 340.474 869.66 339.424L869.664 339.415Z" fill="#F2EEE0"/>
<path d="M869.005 329.968L882.898 328.154C883.014 329.284 883.099 330.409 883.194 331.539L869.283 333.111C869.204 332.066 869.116 331.017 869.005 329.968Z" fill="#F2EEE0"/>
<path d="M869.764 342.562L883.747 341.699C883.787 342.826 883.837 343.957 883.855 345.083L869.863 345.709C869.85 344.662 869.807 343.612 869.777 342.557L869.773 342.566L869.764 342.562Z" fill="#F2EEE0"/>
<path d="M865.017 392.42L878.705 395.348C878.459 396.448 878.208 397.536 877.944 398.628L864.309 395.471C864.557 394.46 864.787 393.44 865.017 392.42Z" fill="#F2EEE0"/>
<path d="M869.471 361.422L883.461 361.99C883.39 363.119 883.314 364.234 883.225 365.354L869.248 364.548C869.334 363.504 869.407 362.465 869.476 361.413L869.471 361.422Z" fill="#F2EEE0"/>
<path d="M868.98 367.676L882.943 368.719C882.841 369.844 882.72 370.96 882.599 372.077L868.658 370.8C868.776 369.76 868.893 368.72 868.989 367.68L868.98 367.676Z" fill="#F2EEE0"/>
<path d="M869.645 358.283L883.648 358.614C883.599 359.742 883.532 360.862 883.461 361.99L869.471 361.422C869.535 360.378 869.59 359.33 869.645 358.283Z" fill="#F2EEE0"/>
<path d="M869.853 345.705L883.846 345.079C883.864 346.206 883.856 347.342 883.856 348.461L869.854 348.849C869.855 347.798 869.865 346.751 869.844 345.7L869.853 345.705Z" fill="#F2EEE0"/>
<path d="M869.244 364.557L883.22 365.364C883.131 366.484 883.041 367.604 882.939 368.728L868.975 367.685C869.071 366.645 869.157 365.601 869.235 364.553L869.244 364.557Z" fill="#F2EEE0"/>
<path d="M869.761 355.149L883.759 355.235C883.724 356.358 883.693 357.495 883.639 358.61L869.636 358.278C869.691 357.23 869.724 356.183 869.757 355.136L869.752 355.145L869.761 355.149Z" fill="#F2EEE0"/>
<path d="M869.85 352.003L883.861 351.851C883.844 352.983 883.808 354.106 883.773 355.23L869.775 355.144C869.807 354.097 869.84 353.05 869.859 352.007L869.85 352.003Z" fill="#F2EEE0"/>
<path d="M869.327 333.741C869.314 333.535 869.283 333.321 869.274 333.107L883.185 331.535C883.219 331.928 883.254 332.32 883.289 332.713C883.348 333.45 883.372 334.192 883.423 334.925L869.48 336.261C869.428 335.416 869.393 334.58 869.327 333.741Z" fill="#F2EEE0"/>
<path d="M849.349 436.535L861.861 442.823C861.362 443.826 860.863 444.829 860.347 445.823L847.942 439.332C848.416 438.405 848.88 437.474 849.349 436.535Z" fill="#F2EEE0"/>
<path d="M847.942 439.332L860.347 445.823C859.83 446.818 859.322 447.816 858.787 448.802L846.495 442.098C846.986 441.18 847.469 440.258 847.947 439.323L847.942 439.332Z" fill="#F2EEE0"/>
<path d="M850.719 433.72L863.334 439.792C862.854 440.803 862.373 441.815 861.861 442.823L849.349 436.535C849.813 435.604 850.273 434.66 850.719 433.72Z" fill="#F2EEE0"/>
<path d="M846.5 442.112L858.792 448.816C858.266 449.806 857.722 450.787 857.178 451.769L845.007 444.857C845.508 443.943 846.017 443.034 846.509 442.116L846.5 442.112Z" fill="#F2EEE0"/>
<path d="M838.59 455.614L850.267 463.332C849.66 464.284 849.066 465.23 848.445 466.164L836.898 458.242C837.48 457.367 838.03 456.488 838.594 455.605L838.59 455.614Z" fill="#F2EEE0"/>
<path d="M844.998 444.852L857.169 451.765C856.625 452.746 856.073 453.724 855.511 454.697L843.46 447.576C843.979 446.671 844.488 445.762 844.998 444.852Z" fill="#F2EEE0"/>
<path d="M841.887 450.282L853.82 457.602C853.249 458.571 852.66 459.531 852.075 460.482L840.263 452.954C840.809 452.062 841.354 451.17 841.887 450.282Z" fill="#F2EEE0"/>
<path d="M853.311 428.032L866.123 433.666C865.67 434.69 865.225 435.719 864.762 436.739L852.044 430.885C852.473 429.937 852.896 428.975 853.315 428.023L853.311 428.032Z" fill="#F2EEE0"/>
<path d="M839.778 453.765C839.947 453.502 840.098 453.23 840.268 452.967L852.08 460.495C851.941 460.717 851.812 460.944 851.673 461.166C851.214 461.899 850.74 462.616 850.272 463.345L838.594 455.627C838.989 455.006 839.397 454.403 839.783 453.778L839.787 453.769L839.778 453.765Z" fill="#F2EEE0"/>
<path d="M843.46 447.576L855.511 454.697C854.949 455.67 854.387 456.643 853.816 457.611L841.882 450.292C842.419 449.395 842.937 448.49 843.456 447.585L843.46 447.576Z" fill="#F2EEE0"/>
<path d="M854.542 425.163L867.448 430.575C867.012 431.608 866.577 432.641 866.123 433.666L853.311 428.032C853.73 427.08 854.131 426.119 854.542 425.163Z" fill="#F2EEE0"/>
<path d="M864.309 395.471L877.944 398.628C877.679 399.72 877.397 400.804 877.115 401.888L863.534 398.502C863.791 397.494 864.061 396.483 864.309 395.471Z" fill="#F2EEE0"/>
<path d="M860.969 407.535L874.367 411.609C874.035 412.68 873.685 413.743 873.331 414.815L860.009 410.511C860.333 409.525 860.662 408.53 860.969 407.535Z" fill="#F2EEE0"/>
<path d="M863.534 398.502L877.115 401.888C876.832 402.972 876.559 404.059 876.263 405.148L862.736 401.533C863.015 400.525 863.263 399.514 863.534 398.502Z" fill="#F2EEE0"/>
<path d="M859.999 410.507L873.322 414.811C872.972 415.873 872.618 416.945 872.25 417.999L859.003 413.466C859.35 412.479 859.675 411.493 860.004 410.498L859.999 410.507Z" fill="#F2EEE0"/>
<path d="M862.736 401.533L876.263 405.148C875.958 406.232 875.636 407.307 875.326 408.378L861.865 404.529C862.163 403.53 862.46 402.531 862.74 401.523L862.736 401.533Z" fill="#F2EEE0"/>
<path d="M861.861 404.538L875.322 408.387C875.008 409.467 874.699 410.538 874.362 411.618L860.964 407.544C861.271 406.549 861.559 405.546 861.857 404.547L861.861 404.538Z" fill="#F2EEE0"/>
<path d="M855.485 422.898C855.583 422.691 855.642 422.475 855.731 422.263L868.727 427.463C868.642 427.688 868.553 427.923 868.459 428.144C868.131 428.951 867.789 429.763 867.448 430.575L854.542 425.163C854.853 424.414 855.178 423.66 855.48 422.907L855.485 422.898Z" fill="#F2EEE0"/>
<path d="M856.862 419.346L869.943 424.321C869.544 425.371 869.144 426.421 868.727 427.463L855.731 422.263C856.114 421.293 856.488 420.319 856.862 419.346Z" fill="#F2EEE0"/>
<path d="M858.999 413.475L872.245 418.008C871.877 419.062 871.505 420.125 871.115 421.18L857.949 416.43C858.305 415.448 858.661 414.465 858.995 413.484L858.999 413.475Z" fill="#F2EEE0"/>
<path d="M857.953 416.421L871.119 421.171C870.738 422.23 870.343 423.271 869.943 424.321L856.862 419.346C857.237 418.372 857.602 417.394 857.958 416.412L857.953 416.421Z" fill="#F2EEE0"/>
<path d="M852.04 430.894L864.758 436.748C864.296 437.769 863.815 438.78 863.33 439.801L850.715 433.729C851.161 432.79 851.612 431.842 852.04 430.894Z" fill="#F2EEE0"/>
<path d="M847.165 257.236L859.196 250.066C859.74 251.088 860.275 252.106 860.801 253.12L848.644 260.087C848.165 259.14 847.672 258.197 847.165 257.236Z" fill="#F2EEE0"/>
<path d="M833.859 212.796L823.689 222.434C823.121 221.765 822.553 221.097 821.976 220.446C821.83 220.288 821.692 220.134 821.559 219.972L831.57 210.158C831.872 210.501 832.178 210.835 832.485 211.191C832.952 211.723 833.406 212.259 833.868 212.8L833.859 212.796Z" fill="#F2EEE0"/>
<path d="M564.903 530.439C563.848 529.816 562.802 529.175 561.76 528.525L569.84 517.064C570.819 517.662 571.801 518.25 572.784 518.839L564.894 530.435L564.903 530.439Z" fill="#F2EEE0"/>
<path d="M547.91 519.088L546.57 518.086L555.605 507.366L556.291 507.88C556.985 508.399 557.685 508.908 558.384 509.417L549.531 520.29C548.99 519.889 548.437 519.494 547.896 519.093L547.901 519.084L547.91 519.088Z" fill="#F2EEE0"/>
<path d="M544.122 516.248C543.958 516.126 543.804 516.008 543.641 515.886L552.743 505.209L555.618 507.361L546.583 518.081L544.126 516.239L544.122 516.248Z" fill="#F2EEE0"/>
<path d="M850.08 262.962L862.361 256.198C862.874 257.238 863.382 258.266 863.864 259.303L851.471 265.859C851.018 264.902 850.56 263.931 850.089 262.966L850.08 262.962Z" fill="#F2EEE0"/>
<path d="M848.644 260.087L860.801 253.12C861.331 254.147 861.849 255.179 862.361 256.198L850.08 262.961C849.613 262.009 849.138 261.053 848.644 260.087Z" fill="#F2EEE0"/>
<path d="M825.779 224.932C825.091 224.096 824.39 223.265 823.685 222.443L833.855 212.805C834.611 213.684 835.362 214.573 836.109 215.47L825.774 224.941L825.779 224.932Z" fill="#F2EEE0"/>
<path d="M549.544 520.285L558.397 509.412C559.327 510.087 560.262 510.753 561.21 511.413L552.553 522.435C551.55 521.726 550.547 521.017 549.553 520.29L549.544 520.285Z" fill="#F2EEE0"/>
<path d="M838.328 218.163L827.824 227.454C827.154 226.605 826.467 225.769 825.779 224.932L836.114 215.461C836.852 216.354 837.599 217.252 838.319 218.159L838.328 218.163Z" fill="#F2EEE0"/>
<path d="M851.462 265.855L863.855 259.299C864.345 260.34 864.832 261.39 865.291 262.428L852.791 268.767C852.364 267.8 851.911 266.821 851.453 265.85L851.462 265.855Z" fill="#F2EEE0"/>
<path d="M817.177 215.144C816.423 214.331 815.673 213.532 814.942 212.764L824.45 202.446C825.245 203.267 826.045 204.123 826.859 204.997L817.182 215.157L817.177 215.144Z" fill="#F2EEE0"/>
<path d="M814.942 212.764C814.174 211.957 813.416 211.176 812.672 210.412L821.998 199.941C822.806 200.757 823.628 201.591 824.45 202.446L814.942 212.764Z" fill="#F2EEE0"/>
<path d="M812.663 210.408C811.886 209.618 811.111 208.851 810.34 208.097L819.488 197.465C820.314 198.267 821.149 199.095 821.989 199.937L812.663 210.408Z" fill="#F2EEE0"/>
<path d="M845.627 254.413L857.547 247.035C858.114 248.057 858.653 249.066 859.196 250.066L847.165 257.236C846.667 256.303 846.152 255.36 845.632 254.405L845.627 254.413Z" fill="#F2EEE0"/>
<path d="M868.288 323.693L882.105 321.412C882.257 322.536 882.396 323.665 882.517 324.785L868.66 326.826C868.545 325.786 868.421 324.742 868.279 323.689L868.288 323.693Z" fill="#F2EEE0"/>
<path d="M819.386 217.555C818.64 216.725 817.909 215.934 817.186 215.148L826.863 204.988C827.64 205.822 828.436 206.687 829.236 207.566L819.391 217.546L819.386 217.555Z" fill="#F2EEE0"/>
<path d="M561.76 528.525C560.718 527.875 559.68 527.216 558.656 526.552L566.936 515.23C567.906 515.846 568.867 516.457 569.854 517.059L561.773 528.521L561.769 528.53L561.76 528.525Z" fill="#F2EEE0"/>
<path d="M555.578 524.525L564.054 513.351C565.002 513.99 565.967 514.615 566.932 515.239L558.652 526.561C557.619 525.893 556.599 525.22 555.574 524.534L555.578 524.525Z" fill="#F2EEE0"/>
<path d="M552.539 522.439L561.197 511.418C562.136 512.075 563.093 512.718 564.041 513.356L555.565 524.53C554.54 523.844 553.533 523.144 552.526 522.444L552.53 522.435L552.539 522.439Z" fill="#F2EEE0"/>
<path d="M821.555 219.981C820.823 219.145 820.095 218.346 819.377 217.551L829.223 207.57C829.996 208.414 830.769 209.279 831.561 210.176L821.551 219.99L821.555 219.981Z" fill="#F2EEE0"/>
<path d="M864.925 305.001L878.44 301.325C878.7 302.434 878.946 303.547 879.183 304.656L865.6 308.1C865.382 307.067 865.152 306.038 864.925 305.001Z" fill="#F2EEE0"/>
<path d="M864.192 301.907L877.653 297.995C877.926 299.099 878.181 300.217 878.431 301.321L864.916 304.996C864.685 303.968 864.445 302.935 864.192 301.907Z" fill="#F2EEE0"/>
<path d="M865.6 308.1L879.183 304.656C879.42 305.765 879.666 306.878 879.889 307.992L866.249 311.209C866.044 310.171 865.827 309.138 865.609 308.105L865.6 308.1Z" fill="#F2EEE0"/>
<path d="M862.818 296.526C862.75 296.273 862.669 296.002 862.601 295.748L875.897 291.392C876.037 291.891 876.194 292.375 876.334 292.873C876.498 293.483 876.644 294.084 876.8 294.689L863.41 298.823C863.211 298.053 863.017 297.296 862.818 296.526Z" fill="#F2EEE0"/>
<path d="M861.708 292.688L874.936 288.102C875.271 289.191 875.593 290.285 875.901 291.383L862.605 295.739C862.325 294.72 862.023 293.702 861.712 292.679L861.708 292.688Z" fill="#F2EEE0"/>
<path d="M863.41 298.822L876.8 294.689C877.086 295.788 877.381 296.891 877.653 297.995L864.192 301.906C863.939 300.878 863.672 299.855 863.41 298.822Z" fill="#F2EEE0"/>
<path d="M867.362 317.44L881.102 314.691C881.29 315.81 881.478 316.929 881.643 318.048L867.859 320.566C867.708 319.531 867.531 318.484 867.362 317.44Z" fill="#F2EEE0"/>
<path d="M866.244 311.196L879.885 307.979C880.104 309.102 880.305 310.216 880.507 311.33L866.821 314.316C866.639 313.277 866.444 312.243 866.239 311.205L866.244 311.196Z" fill="#F2EEE0"/>
<path d="M867.85 320.562L881.634 318.044C881.805 319.177 881.948 320.296 882.096 321.407L868.28 323.689C868.142 322.649 867.996 321.605 867.85 320.562Z" fill="#F2EEE0"/>
<path d="M866.821 314.316L880.507 311.33C880.717 312.448 880.905 313.567 881.093 314.686L867.353 317.436C867.18 316.402 867.012 315.358 866.821 314.316Z" fill="#F2EEE0"/>
<path d="M856.44 277.653L869.244 271.957C869.659 273.017 870.065 274.074 870.467 275.161L857.569 280.636C857.192 279.637 856.814 278.638 856.431 277.649L856.44 277.653Z" fill="#F2EEE0"/>
<path d="M855.554 275.372C855.464 275.141 855.365 274.906 855.267 274.671L867.977 268.752C868.179 269.258 868.4 269.773 868.598 270.288C868.815 270.833 869.023 271.397 869.235 271.952L856.431 277.649C856.139 276.89 855.842 276.117 855.554 275.372Z" fill="#F2EEE0"/>
<path d="M852.8 268.771L865.3 262.432C865.773 263.487 866.228 264.534 866.669 265.585L854.071 271.711C853.662 270.731 853.24 269.755 852.8 268.771Z" fill="#F2EEE0"/>
<path d="M857.569 280.636L870.467 275.161C870.869 276.227 871.253 277.306 871.65 278.381L858.681 283.633C858.316 282.63 857.952 281.626 857.578 280.64L857.569 280.636Z" fill="#F2EEE0"/>
<path d="M854.071 271.711L866.669 265.585C867.116 266.649 867.553 267.71 867.981 268.766L855.271 274.684C854.876 273.699 854.48 272.714 854.067 271.72L854.071 271.711Z" fill="#F2EEE0"/>
<path d="M571.274 534.086C570.202 533.5 569.134 532.904 568.071 532.299L575.761 520.564C576.757 521.125 577.756 521.678 578.76 522.221L571.274 534.086Z" fill="#F2EEE0"/>
<path d="M859.734 286.636L872.811 281.6C873.185 282.675 873.534 283.76 873.891 284.848L860.747 289.652C860.419 288.644 860.076 287.64 859.734 286.636Z" fill="#F2EEE0"/>
<path d="M860.757 289.657L873.9 284.853C874.262 285.932 874.61 287.017 874.941 288.115L861.712 292.702C861.406 291.692 861.081 290.675 860.752 289.666L860.757 289.657Z" fill="#F2EEE0"/>
<path d="M858.672 283.629L871.641 278.376C872.029 279.447 872.422 280.508 872.802 281.596L859.725 286.631C859.374 285.623 859.018 284.624 858.663 283.625L858.672 283.629Z" fill="#F2EEE0"/>
<path d="M564.903 530.439L572.793 518.843C573.779 519.423 574.77 519.993 575.766 520.555L568.075 532.29C567.012 531.685 565.957 531.062 564.903 530.439Z" fill="#F2EEE0"/>
<path d="M833.666 235.245C833.045 234.363 832.41 233.486 831.771 232.617L842.577 223.691C843.267 224.617 843.948 225.56 844.628 226.504L833.675 235.25L833.666 235.245Z" fill="#F2EEE0"/>
<path d="M626.175 540.498L621.966 553.877C620.797 553.587 619.633 553.288 618.468 552.967L622.906 539.665C623.99 539.947 625.087 540.225 626.175 540.498Z" fill="#F2EEE0"/>
<path d="M652.582 545.107L650.243 558.931C649.055 558.799 647.872 558.657 646.688 558.515L649.265 544.727C650.372 544.866 651.475 544.991 652.582 545.107Z" fill="#F2EEE0"/>
<path d="M649.265 544.727L646.688 558.515C645.5 558.36 644.32 558.209 643.14 558.036L645.951 544.292C647.05 544.449 648.157 544.588 649.265 544.727Z" fill="#F2EEE0"/>
<path d="M660.872 545.813C661.432 545.847 661.991 545.858 662.551 545.891L660.925 559.822C660.603 559.801 660.285 559.794 659.971 559.778C659.103 559.72 658.238 559.652 657.36 559.589L659.223 545.694C659.77 545.732 660.321 545.784 660.872 545.813Z" fill="#F2EEE0"/>
<path d="M659.223 545.694L657.36 559.589C656.173 559.501 654.981 559.4 653.798 559.28L655.903 545.412C657.01 545.506 658.117 545.6 659.228 545.685L659.223 545.694Z" fill="#F2EEE0"/>
<path d="M645.95 544.292L643.14 558.036C641.96 557.863 640.771 557.686 639.591 557.49L642.64 543.804C643.743 543.974 644.847 544.144 645.95 544.292Z" fill="#F2EEE0"/>
<path d="M639.327 543.249L636.045 556.89C634.86 556.682 633.684 556.455 632.507 556.228L636.023 542.653C637.119 542.864 638.219 543.065 639.323 543.258L639.327 543.249Z" fill="#F2EEE0"/>
<path d="M632.74 541.99L628.986 555.507C627.809 555.258 626.641 554.991 625.472 554.723L629.451 541.269C630.543 541.511 631.635 541.753 632.731 541.986L632.74 541.99Z" fill="#F2EEE0"/>
<path d="M642.644 543.795L639.595 557.481C638.415 557.286 637.235 557.09 636.05 556.881L639.332 543.24C640.436 543.432 641.535 543.612 642.635 543.791L642.644 543.795Z" fill="#F2EEE0"/>
<path d="M629.451 541.269L625.472 554.723C624.304 554.456 623.131 554.175 621.966 553.877L626.175 540.498C627.267 540.763 628.36 541.027 629.451 541.269Z" fill="#F2EEE0"/>
<path d="M636.037 542.649L632.521 556.223C631.344 555.996 630.167 555.747 628.999 555.502L632.753 541.985C633.85 542.218 634.945 542.429 636.05 542.644L636.046 542.653L636.037 542.649Z" fill="#F2EEE0"/>
<path d="M665.873 546.053L664.494 560C663.312 559.948 662.117 559.9 660.934 559.826L662.56 545.895C663.67 545.958 664.772 546.017 665.882 546.057L665.873 546.053Z" fill="#F2EEE0"/>
<path d="M655.908 545.425L653.802 559.294C652.615 559.183 651.432 559.064 650.243 558.931L652.582 545.107C653.69 545.224 654.792 545.327 655.904 545.434L655.908 545.425Z" fill="#F2EEE0"/>
<path d="M695.587 544.914L696.374 558.917C695.204 559.048 694.031 559.188 692.861 559.296L692.32 545.289C693.414 545.177 694.507 545.043 695.596 544.919L695.587 544.914Z" fill="#F2EEE0"/>
<path d="M698.858 544.531L699.886 558.515C698.717 558.669 697.543 558.786 696.374 558.917L695.587 544.914C696.676 544.79 697.77 544.678 698.858 544.531Z" fill="#F2EEE0"/>
<path d="M689.029 545.552L689.333 559.568C688.158 559.664 686.979 559.745 685.804 559.818L685.742 545.805C686.841 545.73 687.939 545.632 689.033 545.543L689.029 545.552Z" fill="#F2EEE0"/>
<path d="M692.32 545.289L692.861 559.296C691.691 559.405 690.508 559.496 689.337 559.582L689.034 545.565C690.128 545.476 691.227 545.4 692.316 545.298L692.32 545.289Z" fill="#F2EEE0"/>
<path d="M705.356 543.555L706.857 557.499C705.693 557.688 704.533 557.845 703.369 558.012L702.109 544.05C703.193 543.889 704.277 543.729 705.356 543.555Z" fill="#F2EEE0"/>
<path d="M702.109 544.05L703.369 558.012C702.205 558.178 701.046 558.358 699.877 558.511L698.849 544.527C699.937 544.38 701.016 544.206 702.1 544.045L702.109 544.05Z" fill="#F2EEE0"/>
<path d="M679.137 546.121L678.716 560.126C677.527 560.159 676.346 560.174 675.166 560.188L675.833 546.179C676.937 546.161 678.037 546.153 679.146 546.126L679.137 546.121Z" fill="#F2EEE0"/>
<path d="M672.51 546.205L671.61 560.193C670.42 560.181 669.239 560.173 668.048 560.139L669.19 546.156C670.295 546.183 671.405 546.201 672.51 546.205Z" fill="#F2EEE0"/>
<path d="M675.823 546.175L675.157 560.184C673.967 560.195 672.782 560.196 671.601 560.189L672.501 546.201C673.605 546.206 674.71 546.188 675.814 546.17L675.823 546.175Z" fill="#F2EEE0"/>
<path d="M682.44 545.975L682.265 559.997C681.081 560.043 679.905 560.093 678.716 560.126L679.137 546.122C680.237 546.091 681.34 546.028 682.44 545.975Z" fill="#F2EEE0"/>
<path d="M708.587 542.976L710.329 556.879C709.179 557.085 708.021 557.31 706.857 557.499L705.356 543.555C706.439 543.372 707.508 543.172 708.587 542.976Z" fill="#F2EEE0"/>
<path d="M685.737 545.815L685.8 559.827C684.616 559.896 683.44 559.946 682.261 560.006L682.435 545.984C683.535 545.93 684.639 545.89 685.733 545.824L685.737 545.815Z" fill="#F2EEE0"/>
<path d="M669.194 546.147L668.052 560.13C666.862 560.096 665.676 560.053 664.494 560L665.873 546.053C666.983 546.093 668.089 546.12 669.194 546.147Z" fill="#F2EEE0"/>
<path d="M852.299 238.065L840.771 246.039C840.212 245.12 839.639 244.206 839.066 243.291L850.455 235.118C851.079 236.09 851.685 237.075 852.29 238.061L852.299 238.065Z" fill="#F2EEE0"/>
<path d="M601.196 547.54C600.051 547.129 598.925 546.704 597.789 546.275L603.571 533.5C604.625 533.891 605.689 534.285 606.761 534.662L601.196 547.54Z" fill="#F2EEE0"/>
<path d="M613.179 536.837L608.06 549.893C606.908 549.523 605.764 549.134 604.62 548.746L609.964 535.774C611.031 536.137 612.103 536.491 613.183 536.828L613.179 536.837Z" fill="#F2EEE0"/>
<path d="M607.306 534.866C608.189 535.174 609.081 535.487 609.968 535.787L604.624 548.759C603.958 548.531 603.291 548.303 602.634 548.079C602.151 547.905 601.683 547.727 601.201 547.553L606.766 534.675C606.946 534.739 607.122 534.811 607.302 534.875L607.306 534.866Z" fill="#F2EEE0"/>
<path d="M836.894 458.251L848.441 466.173C847.82 467.107 847.172 468.028 846.542 468.958L835.134 460.836C835.721 459.974 836.316 459.117 836.898 458.242L836.894 458.251Z" fill="#F2EEE0"/>
<path d="M616.411 537.841L611.517 550.982C610.365 550.634 609.208 550.273 608.06 549.893L613.179 536.837C614.255 537.182 615.326 537.514 616.411 537.841Z" fill="#F2EEE0"/>
<path d="M845.627 254.414C845.117 253.484 844.588 252.547 844.046 251.614L855.841 244.032C856.416 245.036 856.991 246.04 857.547 247.035L845.627 254.414Z" fill="#F2EEE0"/>
<path d="M854.086 241.039L842.429 248.819C841.956 248.019 841.488 247.21 840.998 246.401C840.924 246.278 840.855 246.167 840.781 246.043L852.308 238.069C852.535 238.431 852.761 238.793 852.988 239.156C853.372 239.792 853.733 240.407 854.099 241.034L854.095 241.043L854.086 241.039Z" fill="#F2EEE0"/>
<path d="M591.03 543.584C589.902 543.115 588.788 542.64 587.682 542.148L594.128 529.678C595.165 530.126 596.216 530.571 597.259 531.01L591.03 543.584Z" fill="#F2EEE0"/>
<path d="M829.826 230.022C829.174 229.158 828.504 228.308 827.829 227.468L838.333 218.176C839.054 219.083 839.774 219.99 840.486 220.915L829.835 230.026L829.826 230.022Z" fill="#F2EEE0"/>
<path d="M591.03 543.584L597.259 531.01C598.305 531.441 599.351 531.872 600.406 532.285L594.39 544.948C593.271 544.505 592.148 544.049 591.034 543.575L591.03 543.584Z" fill="#F2EEE0"/>
<path d="M597.798 546.279C596.662 545.85 595.531 545.412 594.408 544.956L600.424 532.293C601.461 532.697 602.516 533.11 603.58 533.505L597.798 546.279Z" fill="#F2EEE0"/>
<path d="M855.836 244.019L844.041 251.601C843.517 250.676 842.975 249.743 842.42 248.815L854.077 241.035C854.674 242.038 855.253 243.033 855.823 244.024L855.827 244.015L855.836 244.019Z" fill="#F2EEE0"/>
<path d="M619.659 538.786L614.991 552.013C613.83 551.683 612.674 551.344 611.526 550.987L616.42 537.845C617.495 538.168 618.575 538.481 619.659 538.786Z" fill="#F2EEE0"/>
<path d="M571.274 534.087L578.76 522.221C579.764 522.765 580.773 523.299 581.785 523.824L574.502 535.82C573.422 535.251 572.346 534.673 571.274 534.087Z" fill="#F2EEE0"/>
<path d="M831.775 232.608C831.136 231.74 830.487 230.867 829.831 230.013L840.481 220.902C841.184 221.823 841.883 222.753 842.581 223.682L831.775 232.608Z" fill="#F2EEE0"/>
<path d="M622.915 539.669L618.477 552.972C617.317 552.664 616.152 552.343 614.995 552.004L619.663 538.777C620.748 539.082 621.836 539.378 622.92 539.66L622.915 539.669Z" fill="#F2EEE0"/>
<path d="M577.761 537.49C576.672 536.939 575.583 536.389 574.502 535.82L581.785 523.824C582.798 524.35 583.814 524.866 584.836 525.373L577.761 537.49Z" fill="#F2EEE0"/>
<path d="M850.464 235.123L839.075 243.295C838.502 242.381 837.911 241.48 837.32 240.58L848.572 232.208C849.209 233.175 849.845 234.142 850.469 235.114L850.464 235.123Z" fill="#F2EEE0"/>
<path d="M835.513 237.905C834.905 237.019 834.288 236.127 833.666 235.245L844.619 226.5C845.291 227.439 845.959 228.387 846.622 229.345L835.513 237.905Z" fill="#F2EEE0"/>
<path d="M584.351 540.654C583.24 540.149 582.138 539.625 581.054 539.088L587.92 526.85C588.95 527.339 589.971 527.824 591.013 528.287L584.355 540.645L584.351 540.654Z" fill="#F2EEE0"/>
<path d="M848.577 232.222L837.325 240.593C836.735 239.692 836.131 238.797 835.522 237.91L846.631 229.349C847.286 230.302 847.94 231.255 848.577 232.222Z" fill="#F2EEE0"/>
<path d="M587.682 542.148C586.563 541.661 585.461 541.16 584.351 540.654L591.009 528.296C592.038 528.762 593.081 529.225 594.127 529.678L587.682 542.148Z" fill="#F2EEE0"/>
<path d="M577.761 537.49L584.836 525.373C585.857 525.881 586.882 526.379 587.912 526.868L581.045 539.106C579.944 538.582 578.85 538.041 577.761 537.49Z" fill="#F2EEE0"/>
<path d="M772.226 519.439L778.769 531.837C777.774 532.416 776.765 532.978 775.757 533.539L769.431 521.034C770.369 520.506 771.307 519.977 772.226 519.439Z" fill="#F2EEE0"/>
<path d="M805.704 494.791L814.814 505.42C813.971 506.193 813.123 506.952 812.261 507.717L803.327 496.928C804.127 496.223 804.918 495.514 805.699 494.801L805.704 494.791Z" fill="#F2EEE0"/>
<path d="M808.026 492.607L817.33 503.084C816.501 503.874 815.666 504.651 814.823 505.424L805.713 494.796C806.499 494.073 807.267 493.342 808.035 492.611L808.026 492.607Z" fill="#F2EEE0"/>
<path d="M800.917 499.016L809.663 509.947C808.792 510.685 807.926 511.436 807.046 512.169L798.485 501.083C799.308 500.4 800.113 499.708 800.926 499.021L800.917 499.016Z" fill="#F2EEE0"/>
<path d="M803.331 496.919L812.266 507.708C811.409 508.463 810.542 509.214 809.672 509.951L800.926 499.021C801.731 498.329 802.54 497.628 803.331 496.919Z" fill="#F2EEE0"/>
<path d="M812.575 488.136L822.226 498.28C821.485 499.024 820.762 499.776 820.016 500.507C819.95 500.575 819.875 500.639 819.81 500.708L810.33 490.391C811.093 489.647 811.82 488.885 812.57 488.123L812.566 488.132L812.575 488.136Z" fill="#F2EEE0"/>
<path d="M810.212 490.523C810.212 490.523 810.291 490.45 810.326 490.4L819.805 500.717C818.994 501.516 818.16 502.293 817.321 503.079L808.017 492.603C808.746 491.908 809.492 491.222 810.203 490.519L810.212 490.523Z" fill="#F2EEE0"/>
<path d="M798.485 501.082L807.046 512.169C806.166 512.902 805.268 513.605 804.365 514.316L795.998 503.078C796.835 502.413 797.662 501.743 798.481 501.069L798.476 501.078L798.485 501.082Z" fill="#F2EEE0"/>
<path d="M790.938 507.018L798.916 518.537C797.995 519.217 797.074 519.898 796.144 520.574L788.368 508.93C789.232 508.3 790.087 507.665 790.947 507.022L790.938 507.018Z" fill="#F2EEE0"/>
<path d="M814.797 485.859L824.623 495.843C823.835 496.664 823.019 497.472 822.217 498.275L812.566 488.132C813.311 487.379 814.056 486.626 814.797 485.859Z" fill="#F2EEE0"/>
<path d="M788.359 508.926L796.135 520.569C795.205 521.246 794.27 521.909 793.326 522.567L785.749 510.785C786.626 510.173 787.495 509.556 788.368 508.93L788.359 508.926Z" fill="#F2EEE0"/>
<path d="M793.493 505.088L801.666 516.455C800.758 517.153 799.833 517.843 798.921 518.527L790.942 507.009C791.797 506.374 792.656 505.731 793.498 505.079L793.493 505.088Z" fill="#F2EEE0"/>
<path d="M795.999 503.101L804.365 514.339C803.472 515.054 802.578 515.77 801.671 516.468L793.498 505.101C794.339 504.449 795.171 503.77 795.999 503.101Z" fill="#F2EEE0"/>
<path d="M833.361 463.426L844.626 471.734C843.969 472.651 843.298 473.55 842.636 474.453L831.506 465.954C832.129 465.11 832.756 464.279 833.361 463.426Z" fill="#F2EEE0"/>
<path d="M829.643 468.479L840.619 477.16C839.94 478.055 839.242 478.941 838.544 479.827L827.715 470.951C828.361 470.128 829.015 469.31 829.643 468.479Z" fill="#F2EEE0"/>
<path d="M831.506 465.954L842.636 474.453C841.974 475.357 841.308 476.269 840.628 477.164L829.652 468.483C830.283 467.643 830.893 466.803 831.515 465.959L831.506 465.954Z" fill="#F2EEE0"/>
<path d="M785.753 510.776L793.33 522.558C792.386 523.217 791.428 523.858 790.47 524.499L783.097 512.592C783.979 511.993 784.866 511.385 785.744 510.772L785.753 510.776Z" fill="#F2EEE0"/>
<path d="M835.134 460.836L846.542 468.958C845.903 469.883 845.283 470.817 844.626 471.734L833.361 463.426C833.966 462.572 834.543 461.707 835.143 460.84L835.134 460.836Z" fill="#F2EEE0"/>
<path d="M827.715 470.951L838.544 479.827C837.846 480.713 837.152 481.59 836.445 482.472L825.77 473.414C826.433 472.6 827.07 471.773 827.715 470.951Z" fill="#F2EEE0"/>
<path d="M823.289 476.398L833.781 485.679C833.047 486.549 832.295 487.409 831.543 488.27L821.222 478.815C821.921 478.018 822.612 477.217 823.289 476.398Z" fill="#F2EEE0"/>
<path d="M821.222 478.815L831.543 488.27C830.791 489.13 830.052 489.986 829.282 490.838L819.114 481.201C819.822 480.409 820.522 479.612 821.213 478.811L821.222 478.815Z" fill="#F2EEE0"/>
<path d="M819.127 481.197L829.295 490.833C828.53 491.676 827.755 492.515 826.975 493.34L816.978 483.53C817.7 482.755 818.423 481.98 819.131 481.188L819.127 481.197Z" fill="#F2EEE0"/>
<path d="M825.315 473.951L835.961 483.05C835.245 483.928 834.515 484.81 833.781 485.679L823.289 476.398C823.971 475.593 824.647 474.774 825.315 473.951Z" fill="#F2EEE0"/>
<path d="M825.77 473.414L836.445 482.472C836.288 482.663 836.118 482.859 835.96 483.05L825.315 473.951C825.468 473.769 825.617 473.596 825.761 473.41L825.77 473.414Z" fill="#F2EEE0"/>
<path d="M816.973 483.539L826.971 493.349C826.196 494.187 825.421 495.026 824.632 495.847L814.806 485.864C815.537 485.093 816.26 484.318 816.973 483.539Z" fill="#F2EEE0"/>
<path d="M710.891 542.554L711.813 542.361L713.796 556.246C713.734 556.26 713.662 556.271 713.6 556.285C712.513 556.499 711.421 556.678 710.342 556.874L708.6 542.971C709.367 542.826 710.143 542.707 710.9 542.558L710.891 542.554Z" fill="#F2EEE0"/>
<path d="M746.108 532.117L750.659 545.373C749.581 545.802 748.498 546.218 747.406 546.629L743.076 533.301C744.089 532.918 745.096 532.522 746.094 532.122L746.099 532.113L746.108 532.117Z" fill="#F2EEE0"/>
<path d="M749.107 530.908L753.89 544.074C752.816 544.516 751.747 544.949 750.659 545.374L746.108 532.117C747.106 531.717 748.114 531.321 749.107 530.908Z" fill="#F2EEE0"/>
<path d="M739.778 534.535C739.871 534.502 739.955 534.464 740.049 534.431L744.142 547.835C743.05 548.224 741.953 548.621 740.846 548.993L736.979 535.508C737.917 535.189 738.849 534.858 739.773 534.521L739.769 534.53L739.778 534.535Z" fill="#F2EEE0"/>
<path d="M743.081 533.292L747.41 546.62C746.455 546.974 745.515 547.347 744.551 547.697C744.418 547.744 744.276 547.788 744.138 547.844L740.044 534.44C741.061 534.071 742.073 533.688 743.081 533.292Z" fill="#F2EEE0"/>
<path d="M760.871 525.536L766.541 538.349C765.504 538.853 764.463 539.366 763.418 539.866L757.965 526.968C758.94 526.501 759.906 526.03 760.866 525.545L760.871 525.536Z" fill="#F2EEE0"/>
<path d="M755.035 528.31L760.262 541.311C759.207 541.784 758.147 542.244 757.083 542.713L752.074 529.627C753.067 529.191 754.047 528.76 755.026 528.306L755.035 528.31Z" fill="#F2EEE0"/>
<path d="M752.078 529.618L757.087 542.704C756.027 543.163 754.958 543.619 753.885 544.061L749.102 530.894C750.1 530.472 751.089 530.045 752.078 529.618Z" fill="#F2EEE0"/>
<path d="M757.969 526.959L763.422 539.857C762.38 540.348 761.33 540.834 760.271 541.316L755.045 528.315C756.029 527.875 757.008 527.421 757.979 526.963L757.969 526.959Z" fill="#F2EEE0"/>
<path d="M718.208 540.971L720.664 554.77C719.52 555.035 718.38 555.29 717.24 555.546L715.016 541.702C716.08 541.465 717.145 541.229 718.204 540.98L718.208 540.971Z" fill="#F2EEE0"/>
<path d="M721.378 540.196L724.074 553.955C722.943 554.237 721.804 554.515 720.66 554.779L718.204 540.98C719.264 540.73 720.318 540.468 721.378 540.196Z" fill="#F2EEE0"/>
<path d="M736.984 535.521L740.851 549.006C739.754 549.381 738.643 549.739 737.532 550.097L733.901 536.558C734.936 536.22 735.962 535.877 736.984 535.521Z" fill="#F2EEE0"/>
<path d="M727.677 538.473L730.841 552.132C729.715 552.45 728.59 552.768 727.464 553.063L724.532 539.359C725.587 539.074 726.623 538.78 727.677 538.473Z" fill="#F2EEE0"/>
<path d="M733.901 536.558L737.532 550.097C736.421 550.455 735.314 550.803 734.193 551.135L730.793 537.529C731.829 537.213 732.86 536.883 733.896 536.545L733.891 536.554L733.901 536.558Z" fill="#F2EEE0"/>
<path d="M730.798 537.542L734.198 551.148C733.082 551.492 731.966 551.815 730.841 552.132L727.677 538.473C728.717 538.17 729.762 537.858 730.798 537.542Z" fill="#F2EEE0"/>
<path d="M724.532 539.359L727.464 553.063C726.334 553.368 725.209 553.663 724.069 553.941L721.373 540.183C722.428 539.92 723.482 539.635 724.527 539.345L724.523 539.355L724.532 539.359Z" fill="#F2EEE0"/>
<path d="M715.016 541.701L717.24 555.546C716.095 555.788 714.95 556.03 713.801 556.259L711.818 542.374C712.882 542.16 713.952 541.938 715.025 541.706L715.016 541.701Z" fill="#F2EEE0"/>
<path d="M780.435 514.372L787.61 526.417C786.648 527.045 785.667 527.641 784.691 528.251L777.737 516.09C778.638 515.522 779.552 514.949 780.449 514.367L780.444 514.376L780.435 514.372Z" fill="#F2EEE0"/>
<path d="M775.152 517.708C776.023 517.18 776.871 516.631 777.723 516.095L784.677 528.256C783.922 528.728 783.18 529.217 782.42 529.675C782.199 529.813 781.964 529.934 781.744 530.073L774.998 517.8C774.998 517.8 775.104 517.74 775.152 517.708Z" fill="#F2EEE0"/>
<path d="M774.998 517.8L781.744 530.073C780.763 530.67 779.768 531.249 778.76 531.833L772.217 519.435C773.15 518.893 774.07 518.356 774.989 517.796L774.998 517.8Z" fill="#F2EEE0"/>
<path d="M783.106 512.596L790.479 524.503C789.522 525.144 788.573 525.789 787.61 526.417L780.435 514.372C781.332 513.791 782.214 513.191 783.11 512.587L783.106 512.596Z" fill="#F2EEE0"/>
<path d="M766.609 522.594L772.712 535.193C771.69 535.737 770.672 536.271 769.645 536.802L763.753 524.083C764.71 523.585 765.671 523.1 766.609 522.594Z" fill="#F2EEE0"/>
<path d="M769.431 521.034L775.757 533.539C774.748 534.101 773.744 534.653 772.722 535.197L766.618 522.598C767.569 522.087 768.503 521.567 769.44 521.039L769.431 521.034Z" fill="#F2EEE0"/>
<path d="M763.754 524.083L769.645 536.802C768.622 537.324 767.581 537.836 766.541 538.349L760.871 525.536C761.841 525.056 762.802 524.572 763.754 524.083Z" fill="#F2EEE0"/>
<path d="M508.725 492.111L516.036 480.173C517.411 480.96 518.783 481.755 520.15 482.56C520.204 482.585 520.254 482.62 520.295 482.651L512.767 494.463C511.418 493.667 510.064 492.88 508.716 492.107L508.725 492.111Z" fill="#F2EEE0"/>
<path d="M380.066 455.968L380.711 441.981C382.331 442.02 383.951 442.082 385.581 442.147L384.698 456.121C383.158 456.054 381.61 456.004 380.066 455.968Z" fill="#F2EEE0"/>
<path d="M462.015 470.814L466.927 457.703C468.476 458.24 470.021 458.786 471.549 459.346L466.412 472.372C464.956 471.846 463.488 471.326 462.015 470.814Z" fill="#F2EEE0"/>
<path d="M513.011 494.601C512.93 494.563 512.853 494.515 512.785 494.472L520.313 482.659C521.73 483.499 523.125 484.361 524.524 485.236L516.793 496.919C515.538 496.134 514.279 495.359 513.02 494.606L513.011 494.601Z" fill="#F2EEE0"/>
<path d="M407.77 458.104L409.862 444.263C411.477 444.477 413.087 444.699 414.702 444.935L412.372 458.741C410.842 458.512 409.313 458.306 407.779 458.109L407.77 458.104Z" fill="#F2EEE0"/>
<path d="M398.552 457.068L400.165 443.165C401.787 443.316 403.401 443.485 405.02 443.667L403.165 457.544C401.631 457.369 400.09 457.212 398.552 457.068Z" fill="#F2EEE0"/>
<path d="M403.165 457.544L405.02 443.667C406.638 443.849 408.248 444.049 409.867 444.254L407.774 458.095C406.24 457.898 404.702 457.71 403.165 457.544Z" fill="#F2EEE0"/>
<path d="M412.363 458.737L414.693 444.931C416.308 445.167 417.915 445.421 419.517 445.684L416.94 459.45C415.409 459.199 413.884 458.961 412.354 458.732L412.363 458.737Z" fill="#F2EEE0"/>
<path d="M389.324 456.359L390.452 442.403C392.078 442.5 393.695 442.615 395.317 442.744L393.946 456.673C392.409 456.552 390.864 456.449 389.324 456.359Z" fill="#F2EEE0"/>
<path d="M457.588 469.342L462.275 456.146C463.837 456.656 465.386 457.171 466.927 457.703L462.015 470.814C460.551 470.307 459.078 469.817 457.588 469.342Z" fill="#F2EEE0"/>
<path d="M384.694 456.13L385.576 442.157C387.201 442.231 388.822 442.315 390.448 442.412L389.319 456.368C387.779 456.279 386.234 456.198 384.694 456.13Z" fill="#F2EEE0"/>
<path d="M416.953 459.445L419.53 445.679C421.141 445.946 422.739 446.219 424.347 446.517L421.536 460.239C420.018 459.961 418.483 459.696 416.962 459.45L416.953 459.445Z" fill="#F2EEE0"/>
<path d="M393.933 456.678L395.304 442.748C396.925 442.877 398.543 443.014 400.165 443.165L398.552 457.068C397.015 456.925 395.474 456.79 393.937 456.669L393.933 456.678Z" fill="#F2EEE0"/>
<path d="M448.677 466.613L452.904 453.266C454.483 453.717 456.045 454.182 457.597 454.666L453.136 467.946C451.656 467.497 450.171 467.058 448.672 466.622L448.677 466.613Z" fill="#F2EEE0"/>
<path d="M421.527 460.235L424.338 446.513C425.936 446.807 427.539 447.115 429.138 447.432L426.089 461.096C424.571 460.795 423.049 460.504 421.531 460.226L421.527 460.235Z" fill="#F2EEE0"/>
<path d="M439.696 464.195L443.459 450.705C445.051 451.107 446.625 451.522 448.194 451.947L444.197 465.37C442.704 464.971 441.21 464.572 439.696 464.195Z" fill="#F2EEE0"/>
<path d="M453.141 467.937L457.602 454.657C459.168 455.135 460.726 455.632 462.279 456.137L457.592 469.333C456.125 468.857 454.639 468.395 453.15 467.941L453.141 467.937Z" fill="#F2EEE0"/>
<path d="M444.197 465.37L448.194 451.947C449.773 452.376 451.347 452.814 452.913 453.27L448.686 466.618C447.206 466.191 445.708 465.778 444.197 465.37Z" fill="#F2EEE0"/>
<path d="M426.094 461.109L429.143 447.445C430.741 447.762 432.341 448.101 433.926 448.445L430.639 462.051C429.125 461.719 427.612 461.409 426.089 461.096L426.085 461.105L426.094 461.109Z" fill="#F2EEE0"/>
<path d="M434.886 463.017C433.47 462.687 432.059 462.371 430.644 462.064L433.931 448.458C435.315 448.761 436.708 449.069 438.092 449.395C438.299 449.448 438.497 449.498 438.708 449.543L435.182 463.091C435.083 463.066 434.994 463.046 434.895 463.021L434.886 463.017Z" fill="#F2EEE0"/>
<path d="M435.173 463.087L438.699 449.539C440.29 449.918 441.881 450.298 443.45 450.7L439.686 464.191C438.194 463.814 436.684 463.45 435.173 463.087Z" fill="#F2EEE0"/>
<path d="M227.317 498.976L219.855 487.139C221.206 486.275 222.567 485.416 223.941 484.574L231.195 496.546C229.896 497.346 228.602 498.159 227.312 498.986L227.317 498.976Z" fill="#F2EEE0"/>
<path d="M201.407 517.81L192.556 506.961C193.797 505.934 195.042 504.921 196.301 503.925L204.959 514.925C203.765 515.875 202.586 516.842 201.407 517.81Z" fill="#F2EEE0"/>
<path d="M197.896 520.747L188.861 510.055C190.088 509.01 191.319 507.979 192.556 506.961L201.407 517.81C200.228 518.777 199.057 519.749 197.896 520.747Z" fill="#F2EEE0"/>
<path d="M191.04 526.812L181.644 516.435C182.835 515.351 184.016 514.263 185.216 513.206L194.436 523.742C193.294 524.749 192.174 525.778 191.04 526.812Z" fill="#F2EEE0"/>
<path d="M194.436 523.742L185.216 513.206C186.42 512.139 187.638 511.09 188.861 510.055L197.896 520.747C196.74 521.737 195.583 522.726 194.436 523.742Z" fill="#F2EEE0"/>
<path d="M204.959 514.925L196.301 503.925C197.565 502.92 198.824 501.924 200.097 500.946L208.561 512.097C207.354 513.029 206.152 513.975 204.959 514.925Z" fill="#F2EEE0"/>
<path d="M212.223 509.353L203.949 498.059C205.245 497.103 206.545 496.16 207.851 495.23L215.922 506.671C214.683 507.555 213.439 508.447 212.209 509.358L212.223 509.353Z" fill="#F2EEE0"/>
<path d="M218.841 504.604C217.866 505.281 216.905 505.976 215.935 506.666L207.864 495.225C208.869 494.507 209.879 493.78 210.889 493.076C211.198 492.868 211.507 492.661 211.807 492.449L219.68 504.028C219.402 504.217 219.115 504.402 218.841 504.604Z" fill="#F2EEE0"/>
<path d="M219.675 504.037L211.803 492.458C213.131 491.55 214.464 490.655 215.806 489.765L223.471 501.478C222.195 502.322 220.928 503.171 219.675 504.037Z" fill="#F2EEE0"/>
<path d="M187.69 529.925L178.114 519.718C179.281 518.612 180.463 517.524 181.644 516.435L191.04 526.812C189.92 527.841 188.796 528.879 187.69 529.925Z" fill="#F2EEE0"/>
<path d="M208.561 512.097L200.097 500.946C201.375 499.958 202.666 499.011 203.962 498.055L212.236 509.348C211.011 510.25 209.781 511.16 208.574 512.092L208.57 512.101L208.561 512.097Z" fill="#F2EEE0"/>
<path d="M320.393 461.206L317.88 447.435C319.471 447.117 321.052 446.794 322.643 446.498L324.911 460.319C323.405 460.6 321.899 460.903 320.393 461.206Z" fill="#F2EEE0"/>
<path d="M168.222 550.347L157.603 541.216C157.778 541.011 157.962 540.811 158.141 540.597L168.724 549.755L168.213 550.342L168.222 550.347Z" fill="#F2EEE0"/>
<path d="M168.729 549.768L158.145 540.61C159.19 539.39 160.253 538.179 161.32 536.981L171.751 546.322C170.745 547.46 169.735 548.608 168.742 549.764L168.738 549.773L168.729 549.768Z" fill="#F2EEE0"/>
<path d="M536.085 510.259L544.797 499.286C546.123 500.27 547.449 501.254 548.765 502.234L539.858 513.059C538.609 512.123 537.347 511.191 536.085 510.259Z" fill="#F2EEE0"/>
<path d="M223.484 501.473L215.819 489.76C217.161 488.87 218.508 487.993 219.859 487.13L227.321 498.967C226.031 499.794 224.751 500.625 223.488 501.464L223.484 501.473Z" fill="#F2EEE0"/>
<path d="M532.298 507.485L540.824 496.369C542.159 497.335 543.489 498.31 544.815 499.294L536.102 510.267C534.84 509.335 533.583 508.417 532.307 507.49L532.298 507.485Z" fill="#F2EEE0"/>
<path d="M174.814 542.928L164.545 533.41C165.639 532.225 166.738 531.053 167.842 529.895L177.936 539.595C176.885 540.69 175.842 541.811 174.8 542.932L174.805 542.923L174.814 542.928Z" fill="#F2EEE0"/>
<path d="M180.18 537.273C179.43 538.035 178.681 538.82 177.945 539.599L167.851 529.899C168.627 529.083 169.411 528.271 170.191 527.468C170.533 527.121 170.875 526.796 171.217 526.45L181.14 536.324C180.82 536.648 180.5 536.949 180.18 537.273Z" fill="#F2EEE0"/>
<path d="M171.742 546.317L161.311 536.977C162.383 535.77 163.455 534.585 164.545 533.41L174.814 542.928C173.785 544.044 172.761 545.174 171.742 546.317Z" fill="#F2EEE0"/>
<path d="M181.131 536.319L171.208 526.445C172.339 525.3 173.475 524.168 174.62 523.04L184.376 533.078C183.284 534.142 182.205 535.224 181.135 536.31L181.131 536.319Z" fill="#F2EEE0"/>
<path d="M184.381 533.092L174.625 523.053C175.779 521.93 176.946 520.824 178.11 519.727L187.686 529.934C186.579 530.981 185.473 532.027 184.377 533.101L184.381 533.092Z" fill="#F2EEE0"/>
<path d="M539.867 513.063L548.774 502.239C550.032 503.18 551.281 504.116 552.521 505.048L552.743 505.209L543.641 515.886C542.392 514.949 541.134 514.009 539.867 513.063Z" fill="#F2EEE0"/>
<path d="M293.647 468.006L289.722 454.571C291.252 454.102 292.799 453.642 294.365 453.19L298.058 466.691C296.581 467.119 295.11 467.56 293.647 468.006Z" fill="#F2EEE0"/>
<path d="M276.264 473.995L271.411 460.862C272.902 460.286 274.421 459.723 275.944 459.174L280.571 472.388C279.123 472.918 277.685 473.452 276.264 473.995Z" fill="#F2EEE0"/>
<path d="M298.044 466.696L294.351 453.195C295.894 452.743 297.451 452.309 299.013 451.889L302.475 465.458C300.989 465.859 299.517 466.277 298.04 466.705L298.044 466.696Z" fill="#F2EEE0"/>
<path d="M280.571 472.388L275.944 459.174C277.445 458.625 278.973 458.088 280.506 457.566L284.897 470.856C283.44 471.36 281.992 471.867 280.571 472.388Z" fill="#F2EEE0"/>
<path d="M284.897 470.856L280.506 457.566C282.025 457.048 283.553 456.534 285.096 456.038L289.251 469.405C287.785 469.881 286.336 470.367 284.892 470.865L284.897 470.856Z" fill="#F2EEE0"/>
<path d="M289.255 469.395L285.1 456.028C286.629 455.537 288.166 455.05 289.713 454.567L293.638 468.001C292.162 468.451 290.699 468.919 289.251 469.382L289.246 469.391L289.255 469.395Z" fill="#F2EEE0"/>
<path d="M311.392 463.163L308.403 449.486C309.974 449.114 311.555 448.77 313.136 448.425L315.881 462.151C314.385 462.481 312.879 462.806 311.383 463.158L311.392 463.163Z" fill="#F2EEE0"/>
<path d="M231.199 496.537L223.945 484.565C225.31 483.719 226.689 482.891 228.068 482.062L235.119 494.159C233.806 494.941 232.498 495.737 231.208 496.541L231.199 496.537Z" fill="#F2EEE0"/>
<path d="M304.645 464.85L302.47 465.444L299.008 451.876C299.693 451.692 300.369 451.504 301.055 451.32C301.931 451.083 302.813 450.882 303.694 450.659L306.92 464.281C306.163 464.475 305.393 464.652 304.632 464.855L304.645 464.85Z" fill="#F2EEE0"/>
<path d="M306.929 464.286L303.703 450.663C305.265 450.265 306.831 449.858 308.403 449.486L311.392 463.163C309.897 463.515 308.415 463.907 306.929 464.286Z" fill="#F2EEE0"/>
<path d="M315.89 462.155L313.145 448.429C314.726 448.084 316.312 447.753 317.893 447.43L320.406 461.201C318.901 461.504 317.4 461.821 315.903 462.151L315.899 462.16L315.89 462.155Z" fill="#F2EEE0"/>
<path d="M249.379 486.143C248.609 486.552 247.839 486.961 247.078 487.375L240.669 474.93C241.399 474.535 242.129 474.14 242.868 473.749C243.559 473.391 244.249 473.033 244.94 472.674L251.128 485.236C250.543 485.534 249.955 485.841 249.379 486.143Z" fill="#F2EEE0"/>
<path d="M235.11 494.154L228.059 482.058C229.438 481.23 230.831 480.419 232.219 479.617L239.058 491.834C237.731 492.599 236.414 493.368 235.11 494.154Z" fill="#F2EEE0"/>
<path d="M243.052 489.58L236.425 477.242C237.837 476.463 239.244 475.692 240.669 474.93L247.078 487.374C245.728 488.095 244.392 488.833 243.056 489.571L243.052 489.58Z" fill="#F2EEE0"/>
<path d="M239.067 491.838L232.228 479.621C233.617 478.82 235.023 478.026 236.425 477.242L243.052 489.58C241.716 490.318 240.389 491.083 239.067 491.838Z" fill="#F2EEE0"/>
<path d="M272.501 475.484C272.323 475.555 272.159 475.621 271.991 475.696L266.911 462.643C267.022 462.596 267.133 462.549 267.239 462.511C268.61 461.956 270.004 461.4 271.411 460.862L276.264 473.995C275.004 474.481 273.748 474.981 272.501 475.484Z" fill="#F2EEE0"/>
<path d="M251.128 485.236L244.94 472.674C246.361 471.944 247.8 471.221 249.257 470.508L255.233 483.167C253.846 483.848 252.482 484.528 251.132 485.227L251.128 485.236Z" fill="#F2EEE0"/>
<path d="M263.542 479.288L258.014 466.431C259.473 465.785 260.95 465.147 262.449 464.508L267.75 477.467C266.322 478.073 264.916 478.678 263.538 479.297L263.542 479.288Z" fill="#F2EEE0"/>
<path d="M267.754 477.458L262.453 464.499C263.921 463.879 265.402 463.254 266.911 462.643L271.991 475.696C270.549 476.284 269.143 476.867 267.75 477.467L267.754 477.458Z" fill="#F2EEE0"/>
<path d="M255.228 483.176L249.253 470.517C250.684 469.812 252.142 469.121 253.617 468.438L259.367 481.201C257.971 481.855 256.584 482.514 255.228 483.176Z" fill="#F2EEE0"/>
<path d="M259.371 481.192L253.622 468.429C255.071 467.756 256.529 467.087 258.019 466.422L263.546 479.279C262.127 479.911 260.74 480.547 259.375 481.183L259.371 481.192Z" fill="#F2EEE0"/>
<path d="M107.464 678.548L93.6539 676.249C93.9483 674.65 94.2561 673.047 94.5728 671.449L108.343 673.995C108.042 675.512 107.742 677.03 107.464 678.548Z" fill="#F2EEE0"/>
<path d="M103.312 715.458L89.313 715.117C89.3787 713.488 89.4577 711.853 89.5548 710.228L103.545 710.819C103.451 712.369 103.379 713.918 103.307 715.467L103.312 715.458Z" fill="#F2EEE0"/>
<path d="M103.556 710.68C103.556 710.68 103.548 710.765 103.549 710.81L89.559 710.219C89.5654 710.089 89.5675 709.968 89.5828 709.843C89.6779 708.338 89.7952 706.832 89.9083 705.336L103.881 706.174C103.764 707.679 103.637 709.18 103.551 710.689L103.556 710.68Z" fill="#F2EEE0"/>
<path d="M103.163 720.104L89.1609 720.005C89.2042 718.376 89.2518 716.738 89.3174 715.108L103.316 715.449C103.253 717.002 103.204 718.551 103.163 720.104Z" fill="#F2EEE0"/>
<path d="M103.087 724.762L89.0893 724.909C89.1013 723.276 89.1222 721.647 89.1699 720.009L103.172 720.108C103.132 721.661 103.105 723.209 103.096 724.766L103.087 724.762Z" fill="#F2EEE0"/>
<path d="M104.746 696.92L90.8085 695.589C90.9907 693.971 91.2042 692.356 91.4088 690.737L105.32 692.31C105.123 693.844 104.926 695.377 104.746 696.92Z" fill="#F2EEE0"/>
<path d="M103.881 706.174L89.9084 705.336C90.0278 703.71 90.1695 702.083 90.3203 700.461L104.276 701.545C104.128 703.091 103.993 704.633 103.881 706.174Z" fill="#F2EEE0"/>
<path d="M104.276 701.545L90.3203 700.461C90.4711 698.839 90.622 697.217 90.7951 695.594L104.733 696.924C104.558 698.458 104.419 700.008 104.276 701.545Z" fill="#F2EEE0"/>
<path d="M118.047 638.239L104.771 633.791C105.294 632.246 105.836 630.71 106.383 629.187L119.578 633.874C119.057 635.32 118.545 636.771 118.047 638.239Z" fill="#F2EEE0"/>
<path d="M103.582 743.386L89.6263 744.517C89.5265 742.886 89.4399 741.251 89.3624 739.62L103.336 738.731C103.408 740.281 103.488 741.836 103.582 743.386Z" fill="#F2EEE0"/>
<path d="M103.336 738.73L89.3625 739.619C89.285 737.988 89.2298 736.357 89.188 734.721L103.176 734.082C103.212 735.638 103.274 737.184 103.345 738.735L103.336 738.73Z" fill="#F2EEE0"/>
<path d="M103.091 729.414L89.0982 729.807C89.0788 728.17 89.0774 726.542 89.0893 724.909L103.087 724.762C103.078 726.319 103.073 727.866 103.091 729.414Z" fill="#F2EEE0"/>
<path d="M103.171 734.068L89.1834 734.707C89.1416 733.071 89.1088 731.439 89.0893 729.802L103.082 729.409C103.095 730.966 103.122 732.517 103.162 734.064L103.171 734.068Z" fill="#F2EEE0"/>
<path d="M103.908 748.036L89.9706 749.408C89.8394 747.773 89.7262 746.147 89.6264 744.517L103.582 743.386C103.676 744.937 103.783 746.482 103.908 748.036Z" fill="#F2EEE0"/>
<path d="M112.619 655.954L99.0623 652.446C99.4913 650.868 99.9294 649.293 100.377 647.746L113.867 651.487C113.444 652.958 113.023 654.452 112.619 655.954Z" fill="#F2EEE0"/>
<path d="M105.311 692.305L91.3997 690.733C91.6043 689.114 91.8269 687.504 92.0629 685.889L105.948 687.703C105.719 689.233 105.509 690.772 105.311 692.305Z" fill="#F2EEE0"/>
<path d="M110.321 664.937L96.658 661.911C97.0333 660.328 97.4309 658.746 97.8333 657.177L111.448 660.446C111.066 661.948 110.68 663.436 110.33 664.941L110.321 664.937Z" fill="#F2EEE0"/>
<path d="M113.876 651.491L100.386 647.75C100.837 646.171 101.307 644.623 101.777 643.075L115.2 647.05C114.746 648.517 114.311 649.993 113.876 651.491Z" fill="#F2EEE0"/>
<path d="M115.2 647.05L101.777 643.075C102.255 641.508 102.748 639.96 103.245 638.424L116.596 642.643C116.125 644.101 115.658 645.573 115.205 647.063L115.209 647.054L115.2 647.05Z" fill="#F2EEE0"/>
<path d="M116.587 642.638L103.236 638.42C103.741 636.867 104.256 635.318 104.771 633.791L118.047 638.239C117.557 639.689 117.063 641.148 116.587 642.638Z" fill="#F2EEE0"/>
<path d="M112.227 657.362C111.952 658.383 111.709 659.407 111.443 660.433L97.8285 657.163C98.1228 656.008 98.4039 654.857 98.712 653.719C98.8286 653.288 98.9499 652.869 99.0622 652.446L112.619 655.954C112.494 656.426 112.351 656.89 112.227 657.362Z" fill="#F2EEE0"/>
<path d="M106.652 683.122L92.8068 681.061C93.0741 679.45 93.3595 677.847 93.6539 676.249L107.464 678.548C107.185 680.065 106.912 681.596 106.665 683.117L106.652 683.122Z" fill="#F2EEE0"/>
<path d="M108.343 673.994L94.5728 671.449C94.8896 669.85 95.2154 668.255 95.5593 666.669L109.28 669.458C108.949 670.972 108.639 672.486 108.338 674.003L108.343 673.994Z" fill="#F2EEE0"/>
<path d="M104.314 752.68L90.4043 754.297C90.2464 752.672 90.1019 751.042 89.9706 749.408L103.908 748.036C104.033 749.59 104.163 751.135 104.314 752.68Z" fill="#F2EEE0"/>
<path d="M109.285 669.449L95.5636 666.661C95.9118 665.066 96.278 663.479 96.6533 661.897L110.317 664.924C109.958 666.425 109.617 667.935 109.285 669.449Z" fill="#F2EEE0"/>
<path d="M105.957 687.708L92.0718 685.893C92.3077 684.278 92.5437 682.663 92.8067 681.061L106.652 683.122C106.401 684.652 106.172 686.182 105.943 687.712L105.948 687.703L105.957 687.708Z" fill="#F2EEE0"/>
</svg>
